<?xml version="1.0" standalone="no"?>
<!DOCTYPE svg PUBLIC "-//W3C//DTD SVG 20010904//EN"
 "http://www.w3.org/TR/2001/REC-SVG-20010904/DTD/svg10.dtd">
<svg version="1.0" xmlns="http://www.w3.org/2000/svg"
 width="800.000000pt" height="800.000000pt" viewBox="0 0 800.000000 800.000000"
 preserveAspectRatio="xMidYMid meet">
<metadata>
Created by potrace 1.14, written by Peter Selinger 2001-2017
</metadata>
<g transform="translate(0.000000,800.000000) scale(0.100000,-0.100000)"
fill="#000000" stroke="none">
<path d="M385 7541 c-3 -6 -19 -11 -36 -11 -42 0 -117 -38 -159 -80 -31 -32
-76 -112 -109 -193 -14 -35 -14 -113 -1 -175 6 -26 15 -69 21 -97 19 -87 32
-118 89 -205 63 -97 237 -277 293 -303 20 -10 37 -22 37 -28 0 -11 -42 -89
-69 -129 -41 -58 -122 -212 -160 -300 -23 -52 -46 -103 -51 -112 -6 -10 -10
-25 -10 -33 0 -8 -4 -23 -9 -33 -12 -21 -71 -257 -71 -283 0 -11 -5 -28 -12
-39 -22 -35 -1 -32 81 12 109 58 108 59 70 -112 -30 -133 -49 -539 -30 -639 5
-31 15 -87 22 -126 6 -38 20 -89 30 -112 11 -24 19 -46 19 -50 0 -16 64 -169
81 -193 9 -14 19 -36 20 -50 7 -48 33 -33 78 45 23 41 47 75 52 75 5 0 23 -30
39 -67 42 -94 88 -180 121 -230 16 -23 29 -44 29 -47 0 -3 23 -38 52 -78 49
-70 280 -308 298 -308 5 0 36 -18 70 -41 49 -33 64 -38 76 -28 8 6 14 16 14
21 0 5 24 43 52 85 29 41 62 91 72 109 22 39 34 41 85 15 90 -46 124 -61 136
-61 8 0 37 -33 64 -72 65 -94 224 -226 331 -275 98 -46 143 -53 322 -53 l175
0 18 -47 c50 -131 143 -245 264 -325 77 -51 109 -58 135 -32 23 22 21 32 -28
127 -73 145 -93 263 -58 355 26 68 159 199 222 218 113 35 262 10 390 -65 8
-5 27 -14 43 -22 15 -7 58 -39 96 -71 l68 -58 5 -137 c4 -119 2 -146 -15 -198
-10 -33 -22 -95 -26 -137 -4 -42 -9 -79 -11 -81 -3 -3 -32 -18 -65 -35 -209
-105 -412 -279 -474 -407 -70 -146 -47 -278 61 -348 117 -75 382 24 558 210
l73 76 34 -18 c19 -11 48 -37 65 -59 84 -110 161 -174 235 -196 l41 -12 5
-277 c5 -314 21 -455 73 -659 116 -454 348 -735 709 -859 83 -28 300 -63 396
-63 113 0 287 29 402 67 259 86 458 266 595 538 104 208 175 544 189 891 6
159 7 164 28 164 12 0 44 7 71 17 67 22 171 128 218 221 27 53 45 75 83 100
26 17 58 39 70 48 22 16 24 14 77 -32 121 -108 271 -176 391 -178 90 -1 139
22 179 88 26 41 29 55 29 131 0 75 -4 92 -33 152 -56 116 -241 278 -440 386
l-32 17 5 73 c3 39 11 97 17 127 16 74 7 202 -21 281 -19 53 -23 87 -23 197
l-1 132 35 12 c53 18 225 14 285 -6 64 -22 146 -101 176 -170 27 -64 35 -157
19 -227 -6 -30 -34 -100 -61 -157 -51 -106 -55 -133 -20 -151 39 -21 192 77
272 173 100 121 156 278 166 461 10 190 -21 353 -97 511 -40 82 -63 115 -127
180 -43 45 -103 95 -133 112 -77 43 -189 78 -297 93 -81 11 -106 10 -205 -5
-196 -31 -379 -102 -545 -213 -56 -37 -56 -37 -72 -16 -9 11 -35 46 -58 76
-99 128 -241 177 -409 142 -27 -6 -38 -2 -70 28 -99 88 -178 117 -320 117 -91
0 -108 3 -156 27 -41 20 -72 28 -134 31 -101 5 -149 -14 -230 -89 l-55 -53
-87 -1 c-73 -1 -95 -5 -138 -28 -28 -14 -69 -47 -91 -72 l-41 -45 -70 0 c-130
0 -258 -60 -343 -160 -34 -41 -48 -50 -74 -50 -38 0 -132 -26 -163 -46 -17
-11 -27 -12 -42 -4 -28 15 -25 30 20 115 22 41 40 81 40 89 0 8 8 24 18 36
l19 23 25 -34 c14 -19 34 -53 44 -76 10 -24 21 -43 25 -43 15 0 71 102 108
196 38 97 65 184 92 294 15 63 20 467 6 540 -11 61 -25 135 -37 195 -23 115
-24 125 -6 125 9 0 46 -18 82 -40 74 -45 88 -49 79 -21 -3 11 -10 43 -15 73
-6 29 -15 73 -21 98 -5 25 -14 63 -18 85 -4 22 -20 72 -35 110 -16 39 -31 79
-35 90 -18 49 -82 172 -169 324 -51 90 -91 168 -89 175 3 6 30 24 62 41 31 16
61 37 66 47 5 10 15 18 22 18 17 0 80 62 132 130 53 69 118 189 140 258 10 29
21 55 26 58 12 7 12 229 0 252 -5 9 -21 43 -36 74 -21 45 -42 70 -101 118 -41
33 -87 63 -102 66 -15 3 -39 10 -54 16 -30 11 -140 5 -213 -12 -27 -6 -66 -14
-85 -17 -19 -3 -39 -9 -45 -12 -5 -4 -44 -18 -85 -30 -41 -13 -83 -27 -92 -32
-29 -15 -166 -49 -197 -49 -17 0 -32 -4 -35 -9 -5 -8 -108 -22 -176 -24 -19
-1 -69 5 -110 12 -241 42 -647 75 -925 75 -236 1 -626 -26 -795 -53 -36 -6
-99 -15 -140 -20 -41 -5 -83 -12 -92 -16 -39 -16 -306 41 -478 102 -182 64
-257 82 -381 90 -49 3 -79 1 -84 -6z m235 -176 c36 -9 100 -30 142 -46 118
-44 156 -56 243 -75 198 -42 301 -54 360 -43 195 38 471 66 733 75 120 4 182
3 182 -3 0 -16 -99 -79 -150 -96 -102 -34 -172 -48 -310 -62 -147 -15 -179
-20 -215 -35 -11 -4 -40 -14 -65 -21 -25 -7 -49 -16 -55 -21 -5 -4 -15 -8 -22
-8 -15 0 -130 -70 -180 -110 -39 -30 -44 -60 -10 -60 13 0 27 4 32 9 14 13
110 39 212 57 104 20 402 22 533 5 112 -14 240 -43 240 -54 0 -11 -48 -58 -83
-81 -16 -10 -54 -27 -85 -39 -52 -19 -80 -21 -312 -22 -263 -2 -321 -9 -440
-53 -65 -24 -143 -65 -147 -78 -6 -19 28 -25 66 -12 49 17 452 17 541 -1 189
-37 360 -103 457 -177 42 -32 61 -30 123 11 29 20 83 50 119 67 36 17 73 34
83 39 20 10 110 33 208 54 103 21 351 29 480 15 156 -17 155 -17 155 -1 0 15
-104 71 -175 95 -108 35 -165 40 -384 39 -236 -2 -291 5 -383 50 -73 35 -137
87 -124 100 6 6 32 14 58 18 27 3 73 12 103 18 101 21 328 31 460 21 165 -13
233 -24 323 -55 42 -14 80 -25 86 -25 21 0 11 28 -18 53 -110 92 -272 165
-412 186 -41 6 -135 20 -209 31 -181 26 -206 32 -270 64 -55 27 -129 81 -120
88 7 5 339 -10 465 -21 138 -12 283 -29 355 -41 30 -5 82 -14 115 -19 45 -8
82 -7 155 4 181 29 250 44 335 76 28 10 82 28 120 40 39 12 84 28 100 35 43
18 192 37 234 29 59 -10 105 -28 129 -50 93 -80 95 -283 4 -448 -78 -141 -184
-239 -349 -320 -57 -28 -103 -57 -103 -64 0 -21 19 -54 50 -88 58 -64 195
-323 275 -523 49 -124 57 -167 28 -158 -97 28 -135 37 -139 33 -3 -3 8 -51 24
-108 80 -281 112 -474 112 -674 -1 -98 -20 -267 -39 -335 -21 -77 -34 -116
-43 -133 -9 -18 -17 -11 -129 116 -30 34 -30 33 -54 -48 -79 -274 -235 -548
-407 -717 -38 -37 -81 -76 -97 -87 l-29 -21 -57 75 c-32 42 -65 79 -74 84 -14
9 -12 19 23 88 81 165 110 322 86 473 -6 41 -14 90 -17 108 -4 22 -1 32 7 32
32 0 142 -74 188 -127 l51 -57 15 36 c22 53 53 172 67 263 15 98 26 113 60 87
34 -25 116 -72 127 -72 14 0 58 151 74 250 26 172 3 698 -33 734 -5 6 -9 18
-9 28 0 10 -5 18 -11 18 -8 0 -8 -7 -3 -22 18 -46 2 -383 -26 -558 -10 -63
-46 -176 -59 -184 -6 -4 -62 9 -141 33 -67 21 -66 23 -80 -111 -24 -238 -19
-222 -61 -189 -67 52 -216 89 -312 77 -31 -4 -59 -12 -63 -17 -3 -6 8 -33 25
-60 16 -27 36 -68 42 -92 7 -23 19 -51 26 -62 7 -11 13 -40 13 -66 l0 -46 -72
-12 c-40 -7 -99 -16 -130 -22 -219 -35 -288 -50 -288 -59 0 -7 102 -15 358
-27 l132 -6 0 -43 c0 -23 -6 -49 -14 -57 -27 -27 -266 -32 -501 -11 -53 5 -58
4 -45 -9 15 -15 166 -69 230 -82 19 -4 89 -12 155 -19 138 -13 143 -18 94 -86
l-31 -43 -122 7 c-108 5 -223 27 -343 64 -48 15 -49 -2 -2 -42 58 -49 179
-101 282 -121 16 -3 27 -11 25 -17 -8 -23 -102 -40 -228 -41 -108 -1 -134 2
-190 22 -36 13 -86 39 -112 57 -62 46 -127 149 -143 230 -6 29 -3 33 39 58 46
27 89 72 173 186 53 71 41 67 156 54 66 -8 89 0 140 48 52 50 62 68 72 124 14
87 -35 171 -113 194 -20 7 -67 17 -105 24 -68 12 -73 12 -312 -20 -22 -3 -50
-10 -62 -16 -22 -11 -60 -8 -158 12 -114 22 -225 32 -300 26 -90 -7 -155 -22
-155 -36 0 -6 -6 -10 -14 -10 -8 0 -28 -17 -45 -37 -27 -33 -31 -45 -31 -100
0 -35 6 -73 12 -86 20 -35 81 -97 110 -113 33 -17 108 -18 143 -2 39 17 62 -1
129 -103 63 -96 100 -133 155 -156 30 -13 33 -17 27 -45 -19 -94 -110 -219
-188 -259 -89 -45 -128 -53 -263 -52 -127 1 -215 17 -222 40 -2 6 28 18 66 27
85 21 180 66 238 113 52 43 44 60 -17 38 -100 -35 -211 -56 -331 -62 l-126 -6
-27 45 c-42 72 -41 74 80 82 148 9 365 64 404 102 16 15 16 15 -242 -1 -43 -3
-127 -2 -188 1 -123 8 -125 9 -131 79 -3 34 -1 40 16 42 11 1 120 7 243 14
122 6 225 15 227 20 6 9 -112 34 -295 60 -47 7 -110 17 -140 24 l-55 12 2 47
c2 26 12 64 23 86 11 22 20 45 20 52 0 7 14 33 30 58 16 25 30 55 30 66 0 19
-8 22 -61 28 -91 11 -218 -19 -301 -71 -24 -15 -39 -19 -44 -12 -7 12 -21 108
-30 209 -6 66 -21 120 -33 120 -4 0 -11 -4 -16 -9 -6 -4 -39 -16 -75 -25 -36
-10 -72 -19 -80 -22 -19 -5 -33 27 -59 131 -32 131 -42 240 -43 453 -1 111 -3
200 -6 198 -7 -7 -20 -76 -38 -201 -12 -75 -17 -181 -17 -335 -1 -196 2 -238
21 -325 27 -121 46 -178 62 -183 6 -2 43 17 81 42 38 26 74 44 79 41 5 -3 12
-22 15 -43 21 -121 37 -188 82 -334 3 -10 8 -18 12 -18 4 0 29 26 57 58 51 57
174 135 190 119 4 -4 1 -33 -7 -64 -9 -37 -14 -106 -13 -188 1 -118 4 -139 33
-225 18 -52 45 -119 62 -148 l30 -53 -53 -62 c-29 -35 -60 -74 -69 -87 -14
-21 -19 -23 -40 -13 -41 20 -155 130 -213 207 -80 106 -164 248 -209 351 -48
109 -97 244 -97 266 0 8 -6 24 -14 34 -13 18 -18 15 -81 -53 -37 -40 -72 -71
-78 -69 -11 3 -27 52 -51 152 -67 274 -40 630 76 998 17 53 28 100 25 103 -3
3 -37 -1 -76 -10 -89 -20 -101 -20 -101 2 0 76 256 569 356 686 19 22 34 47
34 55 0 10 -32 31 -82 56 -214 104 -335 225 -406 405 -58 149 -36 332 47 385
73 46 187 53 321 20z m1485 -2645 c33 -5 83 -14 110 -20 104 -21 159 -22 240
-5 201 45 366 46 409 5 19 -19 19 -20 0 -55 -18 -35 -21 -36 -59 -30 -110 17
-131 17 -167 -1 -39 -21 -76 -62 -153 -172 -59 -84 -109 -117 -160 -108 -48 9
-67 28 -143 141 -101 149 -160 179 -273 140 -44 -16 -44 -16 -66 12 -25 31
-30 65 -10 81 15 12 141 30 182 25 17 -2 57 -8 90 -13z m3380 -165 c65 -32 73
-34 110 -24 102 29 252 -19 349 -111 l54 -51 47 15 c75 26 160 21 230 -13 59
-28 128 -92 175 -159 l23 -34 -39 -30 c-22 -17 -90 -82 -151 -144 -91 -90
-113 -118 -113 -141 0 -34 6 -43 42 -66 36 -23 64 -79 86 -174 18 -74 22 -81
84 -143 74 -74 125 -165 134 -238 8 -60 28 -92 58 -92 17 0 34 18 73 78 102
156 253 306 365 363 50 25 53 17 44 -104 -4 -51 -7 -99 -8 -107 0 -8 12 -44
27 -80 36 -85 44 -209 19 -290 -9 -30 -16 -74 -16 -97 1 -24 -3 -43 -8 -43 -4
0 -37 13 -72 30 -34 16 -72 30 -83 30 -17 0 -23 11 -35 63 l-14 62 -3 -45 c-8
-126 -47 -237 -114 -321 -35 -45 -37 -55 -5 -33 25 15 25 15 36 -25 17 -65 64
-160 113 -233 l45 -68 -27 -22 c-15 -13 -44 -31 -66 -41 -34 -16 -45 -29 -73
-92 -43 -93 -111 -171 -176 -201 -78 -36 -86 -34 -86 29 -1 28 -9 126 -19 217
-11 91 -18 166 -17 167 1 1 20 -2 41 -8 47 -13 103 -5 155 21 50 25 61 44 16
25 -68 -28 -157 -10 -213 44 -12 11 -33 21 -46 21 -28 0 -118 53 -185 109 -44
37 -52 41 -76 31 -39 -14 -131 -12 -170 4 -49 21 -114 83 -147 142 l-30 52
-62 4 c-85 5 -160 43 -244 124 -39 38 -69 61 -72 53 -8 -25 -76 -91 -115 -112
-29 -14 -66 -22 -126 -25 l-85 -5 -30 -41 c-45 -61 -93 -81 -190 -80 -59 0
-100 8 -158 27 -42 15 -79 27 -81 27 -2 0 -16 -19 -31 -42 -42 -63 -111 -133
-166 -169 -56 -36 -155 -69 -206 -69 -27 0 -36 -5 -40 -20 -3 -11 -24 -32 -48
-45 -53 -32 -141 -34 -217 -5 -67 24 -41 1 42 -39 44 -21 69 -26 128 -25 39 0
72 -3 72 -6 0 -8 -18 -110 -31 -177 -12 -59 -23 -64 -84 -38 -46 18 -140 108
-172 162 -14 24 -42 52 -64 65 -21 12 -39 24 -39 28 0 3 16 37 35 76 20 38 42
93 51 122 16 53 16 53 40 37 33 -21 30 -12 -11 42 -66 87 -105 197 -105 301 0
56 -16 41 -26 -25 -5 -33 -11 -43 -25 -43 -11 0 -36 -7 -56 -15 -20 -8 -38
-14 -40 -11 -7 6 27 155 46 199 11 27 15 51 10 67 -4 14 -7 57 -8 95 l0 70 28
-35 c16 -19 46 -63 68 -97 60 -99 114 -95 126 9 10 82 58 171 133 246 62 62
69 73 85 140 27 105 51 155 93 187 60 45 52 71 -51 177 -70 71 -85 91 -73 98
26 17 83 30 130 30 43 0 47 3 87 54 81 105 191 156 338 156 47 0 85 4 85 8 0
5 16 27 36 51 65 75 156 104 254 81 49 -12 54 -11 63 6 5 11 34 42 63 71 92
91 180 101 309 38z m1827 -190 c14 -27 29 -62 33 -76 l6 -26 -103 -6 c-57 -4
-128 -13 -158 -22 -30 -8 -58 -15 -61 -15 -3 0 -11 17 -17 39 -7 21 -23 55
-37 75 l-25 37 27 10 c49 19 178 38 243 36 l65 -2 27 -50z m175 16 c86 -30
163 -74 202 -115 15 -16 24 -41 28 -81 l6 -57 -40 25 c-55 35 -104 56 -193 82
l-75 23 -21 58 c-12 33 -24 67 -29 77 -11 25 25 22 122 -12z m-574 -61 c33
-38 65 -122 50 -127 -41 -14 -179 -88 -237 -127 -74 -50 -81 -52 -89 -33 -2 6
-25 38 -51 69 l-46 57 62 43 c60 40 262 148 279 148 4 0 18 -13 32 -30z m134
-167 c-3 -10 -5 -4 -5 12 0 17 2 24 5 18 2 -7 2 -21 0 -30z m-80 -15 c-3 -7
-5 -2 -5 12 0 14 2 19 5 13 2 -7 2 -19 0 -25z m865 -44 c21 -38 38 -75 38 -82
0 -8 -20 6 -44 30 -35 35 -44 51 -48 86 -2 25 0 41 6 39 6 -2 27 -35 48 -73z
m-1250 -82 l20 -33 -23 -17 c-26 -18 -151 -127 -213 -186 -22 -20 -40 -36 -41
-36 -2 0 -15 20 -29 44 -14 24 -37 53 -52 63 l-26 19 132 128 132 128 40 -39
c22 -21 49 -53 60 -71z m475 66 c-3 -8 -6 -5 -6 6 -1 11 2 17 5 13 3 -3 4 -12
1 -19z m-2992 -66 c42 -38 96 -91 120 -119 l45 -51 -25 -16 c-13 -9 -36 -36
-50 -61 l-27 -45 -101 92 c-56 50 -111 98 -123 106 -20 16 -20 17 25 89 25 40
49 73 53 73 4 0 41 -31 83 -68z m-1705 -37 c0 -9 33 -49 74 -90 68 -68 118
-100 201 -130 38 -14 160 -35 203 -35 23 0 42 -4 42 -9 0 -17 -109 -120 -156
-147 -95 -56 -144 -66 -339 -71 -201 -5 -281 6 -380 52 -58 28 -185 137 -185
160 0 8 24 14 68 18 86 8 169 30 238 64 66 32 162 117 189 167 20 37 45 48 45
21z m4260 -50 c0 -5 -5 -3 -10 5 -5 8 -10 20 -10 25 0 6 5 3 10 -5 5 -8 10
-19 10 -25z m1111 -62 c-12 -20 -14 -14 -5 12 4 9 9 14 11 11 3 -2 0 -13 -6
-23z m170 -286 c-10 -9 -11 -8 -5 6 3 10 9 15 12 12 3 -3 0 -11 -7 -18z m-32
-43 c-13 -14 -33 -30 -44 -36 -11 -6 -2 6 20 25 47 43 58 48 24 11z m54 -64
c-5 -19 -23 -29 -23 -12 0 7 20 32 26 32 1 0 0 -9 -3 -20z m-5278 -120 c-3 -5
-20 -10 -36 -10 -18 0 -28 4 -24 10 3 6 20 10 36 10 18 0 28 -4 24 -10z m5226
-43 c-10 -9 -11 -8 -5 6 3 10 9 15 12 12 3 -3 0 -11 -7 -18z m-5223 -117 c5 0
17 -7 28 -15 17 -14 16 -14 -13 0 -29 13 -83 87 -83 111 0 5 14 -15 30 -43 17
-29 34 -53 38 -53z m5181 35 c-18 -30 -58 -78 -88 -107 l-55 -53 60 65 c32 36
70 87 84 112 13 26 26 45 29 43 2 -3 -11 -29 -30 -60z m-5075 -161 c5 -14 4
-15 -9 -4 -17 14 -19 20 -6 20 5 0 12 -7 15 -16z m4916 -9 c0 -2 -10 -9 -22
-15 -22 -11 -22 -10 -4 4 21 17 26 19 26 11z m-2025 -274 c28 -11 71 -22 95
-26 40 -6 49 -12 77 -55 73 -111 195 -172 307 -153 l58 9 46 -37 c25 -21 73
-52 106 -70 34 -18 62 -33 63 -34 2 -1 10 -75 19 -166 22 -220 22 -600 0 -777
-75 -615 -309 -978 -721 -1119 -78 -26 -217 -53 -276 -53 l-39 0 0 169 0 169
39 7 c90 15 171 101 171 181 0 47 -10 47 -34 1 -32 -63 -71 -81 -191 -85 -57
-2 -119 1 -143 7 -50 14 -110 63 -118 98 -11 40 -25 10 -18 -36 13 -78 74
-141 161 -163 l43 -10 0 -169 0 -169 -59 0 c-219 0 -469 98 -631 248 -267 246
-394 630 -407 1232 -5 233 -3 262 15 340 11 47 28 132 38 190 9 58 20 111 24
119 4 8 32 20 61 28 93 23 176 70 248 141 37 37 74 78 83 92 l15 24 64 -19
c45 -14 93 -20 164 -20 114 0 158 17 213 79 22 26 40 36 60 36 90 0 197 39
247 88 l28 29 71 -54 c39 -29 94 -62 121 -72z m-1885 57 c0 -30 22 -88 46
-124 24 -35 25 -41 14 -78 -54 -180 -224 -375 -403 -460 -184 -88 -313 -61
-333 69 -24 164 166 362 516 537 137 70 160 77 160 56z m3295 -47 c212 -104
395 -240 474 -354 91 -133 72 -277 -41 -308 -125 -33 -361 87 -498 255 -54 65
-120 185 -140 252 -11 37 -10 43 14 78 24 36 46 94 46 124 0 20 18 14 145 -47z"/>
<path d="M4175 7189 c-11 -4 -78 -29 -150 -54 -229 -80 -275 -111 -275 -187 0
-40 53 -158 71 -158 4 0 16 -17 25 -37 25 -54 73 -113 91 -113 21 0 118 73
157 118 17 20 36 41 43 48 24 24 85 145 99 196 23 87 19 140 -13 170 -21 19
-33 24 -48 17z"/>
<path d="M470 7170 c-22 -16 -25 -26 -24 -73 3 -105 51 -213 148 -331 44 -53
140 -126 166 -126 20 0 47 38 130 180 51 88 60 111 56 139 -9 62 -69 104 -211
151 -38 12 -79 26 -90 31 -58 25 -127 49 -138 49 -7 0 -23 -9 -37 -20z"/>
<path d="M1053 6761 c-50 -13 -120 -71 -138 -116 -10 -22 -21 -48 -26 -57 -12
-23 -12 -65 0 -72 5 -3 29 12 54 34 25 22 49 40 55 40 5 0 15 6 21 14 15 18
92 54 154 73 58 17 63 42 13 66 -45 21 -93 27 -133 18z"/>
<path d="M3535 6753 c-22 -8 -47 -21 -55 -28 -20 -21 -1 -37 70 -58 61 -19
184 -94 207 -126 16 -23 42 -28 44 -8 12 145 -134 267 -266 220z"/>
<path d="M1187 6480 c-3 -11 -16 -24 -29 -29 -188 -78 -236 -114 -285 -212
-50 -102 -63 -158 -44 -188 7 -11 12 -7 24 15 32 61 132 147 227 195 36 18 71
34 78 35 26 5 118 27 146 35 16 5 48 9 72 9 83 0 68 26 -68 116 -73 48 -113
56 -121 24z"/>
<path d="M3403 6473 c-62 -36 -138 -107 -129 -121 4 -7 19 -12 34 -12 26 0
132 -20 202 -38 102 -26 235 -112 297 -193 43 -55 73 -75 73 -48 0 6 -7 38
-16 72 -42 163 -132 249 -337 321 -11 3 -21 15 -24 26 -7 27 -47 25 -100 -7z"/>
<path d="M1690 6416 c-70 -16 -141 -47 -137 -60 2 -6 23 -12 48 -14 270 -16
510 -126 681 -310 l56 -61 84 82 c176 170 444 286 661 287 73 0 79 16 16 43
-85 38 -191 52 -290 38 -80 -12 -204 -46 -224 -61 -22 -17 -128 -50 -160 -50
-19 0 -46 5 -60 12 -21 9 -31 9 -46 0 -31 -20 -93 -14 -165 17 -202 85 -331
106 -464 77z"/>
<path d="M1284 6040 c-62 -11 -144 -45 -144 -60 0 -6 10 -27 23 -48 13 -20 34
-64 46 -97 55 -145 77 -190 110 -230 112 -132 280 -176 500 -129 33 7 34 6 28
-22 -17 -93 -58 -276 -67 -300 -9 -21 -8 -31 4 -42 13 -13 18 -13 31 -2 44 36
115 177 115 226 0 12 4 25 9 28 4 3 14 39 21 80 13 79 8 201 -12 286 -35 145
-136 245 -298 295 -65 20 -288 29 -366 15z m311 -164 c8 -25 6 -31 -18 -52
-16 -13 -37 -24 -48 -24 -40 0 -7 -87 44 -114 69 -38 136 0 158 91 6 24 17 43
23 43 16 0 65 -78 72 -115 12 -66 3 -87 -50 -114 -71 -36 -178 -36 -256 0 -58
27 -121 84 -147 133 -13 26 -43 112 -43 128 0 19 153 58 220 55 28 -2 36 -7
45 -31z"/>
<path d="M3080 6034 c-143 -31 -258 -114 -307 -221 -79 -172 -67 -390 34 -613
42 -92 134 -128 101 -40 -5 14 -14 48 -20 75 -18 89 -39 189 -44 218 -7 31 -2
32 61 17 72 -18 204 -13 274 10 80 27 125 55 178 112 50 55 66 86 109 204 18
51 44 110 58 133 14 22 26 45 26 51 0 16 -77 46 -151 59 -87 15 -238 12 -319
-5z m213 -151 c33 -9 61 -21 63 -27 7 -19 -34 -127 -63 -165 -39 -51 -61 -69
-123 -99 -74 -36 -181 -37 -255 -1 -48 23 -50 25 -53 71 -3 53 20 108 62 147
l25 24 7 -42 c15 -92 83 -140 154 -111 35 15 70 63 70 97 0 16 -7 22 -27 25
-14 2 -35 15 -46 30 -18 24 -19 31 -8 54 11 26 14 26 74 20 34 -4 88 -14 120
-23z"/>
<path d="M4100 5920 c0 -5 5 -10 11 -10 5 0 7 5 4 10 -3 6 -8 10 -11 10 -2 0
-4 -4 -4 -10z"/>
<path d="M806 5888 c-6 -20 -24 -159 -25 -193 -3 -103 43 -387 68 -422 20 -28
38 -29 81 0 42 27 110 59 110 51 0 -21 24 -158 35 -199 38 -140 44 -149 87
-122 60 38 149 59 259 60 112 2 142 14 96 38 -12 7 -35 20 -52 29 -39 21 -107
39 -167 43 -26 2 -51 7 -55 11 -19 19 -33 111 -32 221 1 118 1 120 -22 123
-24 4 -63 -6 -159 -40 -30 -11 -62 -22 -70 -24 -12 -4 -22 16 -44 83 -16 48
-31 95 -34 103 -2 8 -8 31 -13 50 -4 19 -13 55 -20 80 -6 25 -13 56 -14 70 -1
14 -3 31 -4 38 0 6 -6 12 -11 12 -6 0 -12 -6 -14 -12z"/>
<path d="M3857 5893 c-4 -3 -7 -22 -7 -42 -1 -39 -21 -126 -33 -137 -4 -4 -7
-17 -7 -29 0 -24 -35 -140 -50 -167 -6 -10 -10 -24 -10 -32 0 -26 -16 -26 -76
-2 -66 27 -165 51 -184 44 -9 -3 -13 -44 -14 -148 -3 -188 -12 -210 -88 -210
-60 0 -101 -11 -178 -48 -88 -43 -75 -56 58 -59 62 -1 121 -7 132 -13 10 -5
26 -10 35 -10 10 0 39 -11 67 -25 27 -14 54 -25 59 -25 20 0 64 156 75 263 4
37 10 70 14 72 10 6 66 -21 108 -52 47 -35 71 -28 94 31 33 86 50 235 45 406
-5 173 -13 211 -40 183z"/>
<path d="M3265 4610 c-3 -5 -2 -10 4 -10 5 0 13 5 16 10 3 6 2 10 -4 10 -5 0
-13 -4 -16 -10z"/>
<path d="M4603 2495 c-28 -15 -62 -40 -76 -58 -23 -31 -57 -91 -57 -101 0 -3
22 11 50 32 59 45 138 78 225 94 36 7 65 16 65 19 0 13 -80 39 -118 39 -21 0
-61 -11 -89 -25z"/>
<path d="M5848 2504 c-21 -9 -38 -20 -38 -24 0 -4 23 -11 52 -14 76 -10 198
-61 246 -102 51 -44 55 -26 10 42 -48 71 -102 105 -174 110 -40 3 -71 -1 -96
-12z"/>
<path d="M4632 2197 c-44 -14 -118 -81 -143 -129 -38 -74 -43 -218 -9 -252 7
-7 8 0 4 20 -9 44 21 148 56 199 37 54 100 93 163 101 63 9 128 -17 190 -75
l49 -46 -16 38 c-51 122 -174 183 -294 144z"/>
<path d="M5830 2189 c-55 -25 -96 -62 -121 -111 -27 -53 -23 -69 7 -30 14 17
45 43 69 57 158 93 332 -22 354 -234 l7 -66 13 54 c35 139 -41 292 -164 335
-64 21 -110 20 -165 -5z"/>
<path d="M4711 2059 c-51 -15 -79 -38 -105 -83 -34 -59 -41 -115 -22 -178 27
-90 86 -138 169 -138 105 0 177 82 177 200 0 134 -107 231 -219 199z m31 -56
c37 -34 16 -103 -32 -103 -54 0 -75 64 -34 105 20 20 43 19 66 -2z"/>
<path d="M5834 2061 c-86 -21 -138 -97 -139 -202 0 -119 73 -199 181 -199 40
0 59 6 91 29 56 41 78 90 78 178 0 63 -3 76 -30 114 -47 67 -113 96 -181 80z
m116 -61 c38 -38 19 -100 -30 -100 -31 0 -60 30 -60 62 0 22 34 58 55 58 8 0
24 -9 35 -20z"/>
<path d="M3612 2644 c-263 -166 -422 -300 -441 -371 -18 -63 15 -113 72 -113
121 0 395 258 503 472 34 68 38 99 12 97 -7 0 -73 -38 -146 -85z m113 -6 c-46
-89 -115 -179 -209 -273 -97 -96 -161 -144 -232 -171 -41 -15 -45 -15 -69 0
-88 58 42 195 394 420 74 47 137 84 139 81 3 -2 -8 -28 -23 -57z"/>
<path d="M6894 2716 c-8 -21 57 -143 125 -232 72 -97 201 -221 283 -274 98
-64 168 -66 193 -6 18 42 11 70 -31 125 -42 55 -109 112 -233 201 -111 78
-306 200 -321 200 -6 0 -13 -6 -16 -14z m216 -134 c238 -154 370 -275 370
-338 0 -49 -35 -70 -87 -54 -118 39 -315 226 -421 400 -21 36 -43 76 -47 89
l-7 24 38 -23 c22 -13 91 -57 154 -98z"/>
</g>
</svg>
